<svg width="90" height="90" viewBox="0 0 90 90" fill="none" xmlns="http://www.w3.org/2000/svg">
<path d="M45 90C69.8528 90 90 69.8528 90 45C90 20.1472 69.8528 0 45 0C20.1472 0 0 20.1472 0 45C0 69.8528 20.1472 90 45 90Z" fill="#CCCCCC"/>
<path d="M42.3065 47.8182V47.6477C42.3254 45.839 42.5148 44.3996 42.8746 43.3295C43.2345 42.2595 43.7459 41.393 44.4087 40.7301C45.0716 40.0672 45.8671 39.4564 46.7951 38.8977C47.3538 38.5568 47.8557 38.1544 48.3008 37.6903C48.7459 37.2169 49.0962 36.6723 49.3519 36.0568C49.6171 35.4413 49.7496 34.7595 49.7496 34.0114C49.7496 33.0833 49.5318 32.2784 49.0962 31.5966C48.6606 30.9148 48.0782 30.3892 47.3491 30.0199C46.6199 29.6506 45.8103 29.4659 44.9201 29.4659C44.1436 29.4659 43.3955 29.6269 42.6758 29.9489C41.9561 30.2708 41.3548 30.7775 40.8718 31.4688C40.3888 32.16 40.1095 33.0644 40.0337 34.1818H36.4542C36.5299 32.572 36.9466 31.1941 37.7042 30.0483C38.4712 28.9025 39.4798 28.0265 40.7298 27.4205C41.9892 26.8144 43.386 26.5114 44.9201 26.5114C46.5868 26.5114 48.0356 26.8428 49.2667 27.5057C50.5072 28.1686 51.4637 29.0777 52.136 30.233C52.8178 31.3883 53.1587 32.7045 53.1587 34.1818C53.1587 35.2235 52.9978 36.1657 52.6758 37.0085C52.3633 37.8513 51.9087 38.6042 51.3121 39.267C50.725 39.9299 50.0148 40.517 49.1815 41.0284C48.3481 41.5492 47.6805 42.0985 47.1786 42.6761C46.6767 43.2443 46.3121 43.9214 46.0849 44.7074C45.8576 45.4934 45.7345 46.4735 45.7156 47.6477V47.8182H42.3065ZM44.1246 56.2273C43.4239 56.2273 42.8226 55.9763 42.3207 55.4744C41.8188 54.9725 41.5678 54.3712 41.5678 53.6705C41.5678 52.9697 41.8188 52.3684 42.3207 51.8665C42.8226 51.3646 43.4239 51.1136 44.1246 51.1136C44.8254 51.1136 45.4267 51.3646 45.9286 51.8665C46.4305 52.3684 46.6815 52.9697 46.6815 53.6705C46.6815 54.1345 46.5631 54.5606 46.3263 54.9489C46.0991 55.3371 45.7913 55.6496 45.4031 55.8864C45.0243 56.1136 44.5981 56.2273 44.1246 56.2273Z" fill="white"/>
</svg>
